<svg width="16" height="16" viewBox="0 0 16 16" fill="none" xmlns="http://www.w3.org/2000/svg">
<path fill-rule="evenodd" clip-rule="evenodd" d="M2.66675 6.79992C2.66675 3.79859 5.03699 1.33325 8.00008 1.33325C10.9632 1.33325 13.3334 3.79859 13.3334 6.79992C13.3334 8.33092 12.6574 9.67113 11.7421 10.8936C10.9781 11.9139 10.0002 12.911 9.02743 13.9029C8.84364 14.0903 8.66003 14.2775 8.47808 14.4646C8.35256 14.5937 8.18015 14.6666 8.00008 14.6666C7.82001 14.6666 7.6476 14.5937 7.52208 14.4646C7.34014 14.2775 7.15653 14.0903 6.97273 13.9029C5.99995 12.911 5.02205 11.9139 4.25809 10.8936C3.34279 9.67113 2.66675 8.33092 2.66675 6.79992ZM8.00008 2.66659C5.80852 2.66659 4.00008 4.49931 4.00008 6.79992C4.00008 7.91985 4.49071 8.97964 5.3254 10.0944C6.03118 11.0371 6.93446 11.9587 7.90839 12.9524C7.93889 12.9835 7.96945 13.0147 8.00008 13.0459C8.03071 13.0147 8.06128 12.9835 8.09177 12.9524C9.06571 11.9587 9.96898 11.0371 10.6748 10.0944C11.5095 8.97964 12.0001 7.91985 12.0001 6.79992C12.0001 4.49931 10.1916 2.66659 8.00008 2.66659Z" fill="black"/>
<path fill-rule="evenodd" clip-rule="evenodd" d="M5.33325 6.66667C5.33325 5.19392 6.52712 4 7.99992 4C9.47272 4 10.6666 5.19392 10.6666 6.66667C10.6666 8.13946 9.47271 9.33333 7.99992 9.33333C6.52713 9.33333 5.33325 8.13946 5.33325 6.66667ZM7.99992 5.33333C7.26352 5.33333 6.66659 5.93028 6.66659 6.66667C6.66659 7.40308 7.26351 8 7.99992 8C8.73633 8 9.33325 7.40308 9.33325 6.66667C9.33325 5.93028 8.73632 5.33333 7.99992 5.33333Z" fill="black"/>
</svg>
