<svg width="20" height="20" viewBox="0 0 20 20" fill="none" xmlns="http://www.w3.org/2000/svg">
<path d="M18.3337 10.1725C18.2276 10.4362 18.0715 10.6481 17.7807 10.7044C17.3255 10.7929 16.9425 10.4603 16.9398 9.97224C16.9359 9.20838 16.939 8.44452 16.939 7.68066C16.939 7.62122 16.939 7.56222 16.939 7.46746C16.8686 7.5354 16.8216 7.57786 16.7773 7.62345C15.0513 9.39745 13.3245 11.171 11.6007 12.9472C11.3737 13.1814 11.1164 13.2909 10.8081 13.1712C10.6868 13.1242 10.5751 13.029 10.4812 12.9329C9.55343 11.9863 8.63045 11.0351 7.70748 10.0831C7.66617 10.0406 7.64357 9.97939 7.6127 9.92665C7.58705 9.92799 7.56097 9.92978 7.53531 9.93112C7.4988 9.98699 7.4701 10.0505 7.42445 10.0969C5.92239 11.6439 4.41815 13.1886 2.91652 14.736C2.74175 14.9161 2.54698 15.0234 2.29439 14.9957C2.02876 14.9666 1.83964 14.8231 1.73182 14.5755C1.62096 14.3199 1.65444 14.0754 1.81573 13.851C1.85399 13.7974 1.90268 13.7513 1.94833 13.7039C3.63168 11.9728 5.31548 10.2418 6.99927 8.51112C7.3862 8.11332 7.75747 8.11198 8.14223 8.50665C9.06303 9.45287 9.9834 10.3991 10.9029 11.3462C10.9446 11.3896 10.9781 11.4414 11.002 11.4723C12.6432 9.78497 14.267 8.11556 15.8978 6.439C15.8569 6.439 15.8012 6.439 15.7456 6.439C15.0078 6.439 14.2705 6.44123 13.5327 6.4381C13.1306 6.43632 12.8688 6.22535 12.7906 5.85303C12.7123 5.47937 12.9745 5.08112 13.341 5.02257C13.4314 5.00827 13.5249 5.00648 13.6166 5.00648C14.8639 5.00559 16.1116 5.00603 17.3589 5.00559C17.4724 5.00559 17.5868 4.99397 17.6994 5.00425C18.0193 5.0324 18.2032 5.24426 18.3332 5.52183V10.1725H18.3337Z" fill="#977600"/>
</svg>
