<svg width="44" height="44" viewBox="0 0 44 44" fill="none" xmlns="http://www.w3.org/2000/svg">
<path d="M40.0941 22.4185C40.0956 21.1692 39.9892 19.9221 39.7761 18.6909H22.3672V25.7514H32.3382C32.1342 26.8791 31.7023 27.9541 31.0687 28.9115C30.435 29.869 29.6127 30.6891 28.6513 31.3225V35.9056H34.6022C38.0865 32.7152 40.0941 27.9972 40.0941 22.4185Z" fill="#4285F4"/>
<path d="M22.3669 40.3338C27.3486 40.3338 31.5432 38.7093 34.6019 35.9086L28.6511 31.3255C26.9948 32.4407 24.8616 33.0772 22.3669 33.0772C17.5519 33.0772 13.465 29.8538 12.0036 25.51H5.87329V30.2332C7.40976 33.2694 9.76576 35.8218 12.6783 37.6054C15.5908 39.389 18.9452 40.3336 22.3669 40.3338Z" fill="#34A853"/>
<path d="M12.003 25.5092C11.2304 23.233 11.2304 20.7681 12.003 18.4919V13.7688H5.87266C4.58013 16.323 3.90698 19.142 3.90698 22.0006C3.90698 24.8591 4.58013 27.6781 5.87266 30.2323L12.003 25.5092Z" fill="#FBBC04"/>
<path d="M22.3669 10.9245C24.9995 10.8818 27.5433 11.8696 29.4485 13.6744L34.7173 8.44202C31.3763 5.3257 26.9502 3.61479 22.3669 3.66795C18.9452 3.66811 15.5908 4.61272 12.6783 6.39633C9.76577 8.17994 7.40976 10.7324 5.87329 13.7686L12.0036 18.4917C13.465 14.148 17.5519 10.9245 22.3669 10.9245Z" fill="#EA4335"/>
</svg>
