<svg width="24" height="24" viewBox="0 0 24 24" fill="none" xmlns="http://www.w3.org/2000/svg">
<path fill-rule="evenodd" clip-rule="evenodd" d="M9.31535 9.66421C9.26861 10.1149 9.37866 10.568 9.62696 10.9471L9.62813 10.9489C10.5325 12.2983 11.6932 13.4568 13.0443 14.3586C13.4196 14.6115 13.8713 14.7257 14.3218 14.6817C14.7719 14.6376 15.1925 14.4383 15.5116 14.1179C16.0108 13.6316 16.6809 13.3608 17.3778 13.3638C18.075 13.3668 18.7434 13.6438 19.2385 14.1348L21.0237 15.92C21.5205 16.417 21.7997 17.0909 21.7999 17.7935C21.8002 18.4962 21.5216 19.1703 21.0252 19.6677L20.5125 20.1804C19.9467 20.718 19.2797 21.1378 18.5502 21.4153C17.8199 21.6931 17.0417 21.8226 16.2608 21.7966H16.2541C13.579 21.7966 10.2445 20.422 6.90947 17.0861C1.36607 11.5459 1.25447 6.04798 3.81444 3.48798L4.32809 2.97352C4.82525 2.47816 5.49846 2.20001 6.20027 2.20001C6.90212 2.20001 7.57546 2.47828 8.07262 2.97369L9.85785 4.75893C10.3464 5.2525 10.6224 5.91767 10.6267 6.61213C10.6311 7.30615 10.3639 7.97433 9.88217 8.47391C9.56218 8.79381 9.36202 9.21411 9.31535 9.66421ZM19.6441 19.3172L20.1588 18.8026C20.2915 18.6695 20.3968 18.5114 20.4683 18.3375C20.5398 18.1636 20.5762 17.9774 20.5754 17.7894C20.5746 17.6014 20.5366 17.4155 20.4637 17.2422C20.3909 17.0692 20.2841 16.9118 20.1504 16.7799L18.3652 14.9947C18.0999 14.7311 17.7419 14.5822 17.368 14.5799C16.9941 14.5776 16.6342 14.7221 16.3657 14.9824L16.3645 14.9836C15.8443 15.4969 15.1637 15.8161 14.4364 15.888C13.7094 15.9599 12.9796 15.7802 12.3691 15.3789C10.877 14.3849 9.59602 13.1058 8.59978 11.6152C8.19865 11.0029 8.02003 10.2713 8.09385 9.54296C8.1677 8.81436 8.48971 8.13328 9.00591 7.6138L9.00856 7.61102C9.26578 7.34201 9.40768 6.98312 9.40397 6.61095C9.40027 6.23877 9.2509 5.88243 8.98838 5.61859L7.20229 3.83248C6.93491 3.56607 6.57285 3.41648 6.1954 3.41648C5.81796 3.41648 5.45519 3.56677 5.18781 3.83319L4.67744 4.3468C3.56182 5.46262 3.12722 7.23155 3.57242 9.31008C4.01773 11.3891 5.34371 13.7925 7.77284 16.222C10.202 18.6516 12.6043 19.9776 14.6824 20.4228C16.7602 20.8679 18.5284 20.433 19.6441 19.3172Z" fill="white"/>
</svg>
