<svg width="24" height="24" viewBox="0 0 24 24" fill="none" xmlns="http://www.w3.org/2000/svg">
<path fill-rule="evenodd" clip-rule="evenodd" d="M20.5909 20.1016H3.40908C2.50526 20.1005 1.63877 19.741 0.999669 19.1019C0.714287 18.8165 0.484654 18.4858 0.317791 18.1266C0.30129 18.0984 0.287049 18.0687 0.275273 18.0378C0.270751 18.026 0.266614 18.014 0.262864 18.002C0.091485 17.5909 0.000533105 17.1464 0 16.6925V6.40908C0.00106144 5.50526 0.360573 4.63877 0.999669 3.99967C1.63877 3.36057 2.50526 3.00106 3.40908 3H20.5909C21.4947 3.00106 22.3612 3.36057 23.0003 3.99967C23.6394 4.63877 23.9989 5.50526 23.9999 6.40908V16.6925C23.9989 17.5963 23.6394 18.4628 23.0003 19.1019C22.3612 19.741 21.4947 20.1005 20.5909 20.1016ZM1.59833 17.9523C1.67243 18.0588 1.75628 18.1593 1.84929 18.2523C2.26297 18.666 2.82405 18.8984 3.40908 18.8984H20.5909C21.1759 18.8984 21.737 18.666 22.1506 18.2523C22.2437 18.1593 22.3275 18.0588 22.4016 17.9523L15.7518 12.0217L14.0574 13.3032C13.4644 13.7495 12.7421 13.9902 12 13.9891C11.2578 13.9902 10.5355 13.7495 9.94248 13.3032L8.24807 12.0217L1.59833 17.9523ZM7.26894 11.2812L1.20321 16.6909V6.69358L7.26894 11.2812ZM8.49537 10.7073L1.45841 5.37914C1.56054 5.18569 1.69178 5.00681 1.84929 4.84929C2.26297 4.43561 2.82405 4.20321 3.40908 4.20321H20.5909C21.1759 4.20321 21.737 4.43561 22.1506 4.84929C22.3082 5.00681 22.4394 5.18569 22.5415 5.37913L15.5046 10.7073C15.4446 10.7384 15.3898 10.7797 15.3428 10.8298L13.3315 12.3527C12.9469 12.6398 12.4799 12.7949 12 12.7949C11.5201 12.7949 11.053 12.6398 10.6684 12.3527L8.65703 10.8297C8.61006 10.7797 8.55529 10.7384 8.49537 10.7073ZM16.7308 11.2813L22.7967 16.6941C22.7967 16.6936 22.7967 16.693 22.7967 16.6925V6.69357L16.7308 11.2813Z" fill="white"/>
</svg>
