<svg width="20" height="20" viewBox="0 0 20 20" fill="none" xmlns="http://www.w3.org/2000/svg">
<path d="M18.3334 10.1725C18.2273 10.4362 18.0713 10.6481 17.7804 10.7044C17.3252 10.7929 16.9422 10.4603 16.9396 9.97224C16.9357 9.20838 16.9387 8.44452 16.9387 7.68066C16.9387 7.62122 16.9387 7.56222 16.9387 7.46746C16.8683 7.5354 16.8214 7.57786 16.777 7.62345C15.051 9.39745 13.3242 11.171 11.6004 12.9472C11.3735 13.1814 11.1161 13.2909 10.8079 13.1712C10.6866 13.1242 10.5749 13.029 10.4809 12.9329C9.55319 11.9863 8.63021 11.0351 7.70723 10.0831C7.66593 10.0406 7.64332 9.97939 7.61246 9.92665C7.58681 9.92799 7.56072 9.92978 7.53507 9.93112C7.49855 9.98699 7.46986 10.0505 7.42421 10.0969C5.92214 11.6439 4.41791 13.1886 2.91628 14.736C2.74151 14.9161 2.54674 15.0234 2.29415 14.9957C2.02851 14.9666 1.8394 14.8231 1.73158 14.5755C1.62072 14.3199 1.65419 14.0754 1.81549 13.851C1.85374 13.7974 1.90244 13.7513 1.94808 13.7039C3.63144 11.9728 5.31523 10.2418 6.99902 8.51112C7.38595 8.11332 7.75723 8.11198 8.14198 8.50665C9.06279 9.45287 9.98315 10.3991 10.9027 11.3462C10.9444 11.3896 10.9779 11.4414 11.0018 11.4723C12.643 9.78497 14.2668 8.11556 15.8975 6.439C15.8566 6.439 15.801 6.439 15.7453 6.439C15.0076 6.439 14.2702 6.44123 13.5325 6.4381C13.1303 6.43632 12.8686 6.22535 12.7903 5.85303C12.7121 5.47937 12.9742 5.08112 13.3407 5.02257C13.4312 5.00827 13.5246 5.00648 13.6164 5.00648C14.8637 5.00559 16.1114 5.00603 17.3587 5.00559C17.4722 5.00559 17.5865 4.99397 17.6991 5.00425C18.0191 5.0324 18.203 5.24426 18.333 5.52183V10.1725H18.3334Z" fill="#977600"/>
</svg>
