<svg width="24" height="24" viewBox="0 0 24 24" fill="none" xmlns="http://www.w3.org/2000/svg">
<path d="M18.2998 11.1H12.8998V5.70005C12.8998 5.203 12.4969 4.80005 11.9998 4.80005C11.5028 4.80005 11.0998 5.203 11.0998 5.70005V11.1H5.6998C5.20275 11.1 4.7998 11.503 4.7998 12C4.7998 12.4971 5.20275 12.9 5.6998 12.9H11.0998V18.3C11.0998 18.7971 11.5028 19.2 11.9998 19.2C12.4969 19.2 12.8998 18.7971 12.8998 18.3V12.9H18.2998C18.7969 12.9 19.1998 12.4971 19.1998 12C19.1998 11.503 18.7969 11.1 18.2998 11.1Z" fill="black"/>
</svg>
