<svg width="29" height="25" viewBox="0 0 29 25" fill="none" xmlns="http://www.w3.org/2000/svg">
<path d="M0 16.75C0.166667 11.0833 2.79167 5.5 7.875 0L10.5 1.875C6.91667 5.625 5.08333 8.625 5 10.875C5.08333 11.7917 6.04167 12.5 7.875 13C8.125 13.0833 8.45833 13.1667 8.875 13.25C11.5417 14.25 12.875 16.0833 12.875 18.75C12.875 19.5833 12.7083 20.4167 12.375 21.25C11.375 23.75 9.54167 25 6.875 25C6.29167 25 5.66667 24.9167 5 24.75C1.66667 23.9167 0 21.25 0 16.75ZM16.125 16.75C16.2917 11.0833 18.9167 5.5 24 0L26.625 1.875C23.0417 5.625 21.2083 8.625 21.125 10.875C21.2083 11.7917 22.1667 12.5 24 13C24.25 13.0833 24.5833 13.1667 25 13.25C27.6667 14.25 29 16.0833 29 18.75C29 19.5833 28.8333 20.4167 28.5 21.25C27.5 23.75 25.6667 25 23 25C22.4167 25 21.7917 24.9167 21.125 24.75C17.7917 23.9167 16.125 21.25 16.125 16.75Z" fill="#161616"/>
</svg>
